<?xml version="1.0" encoding="UTF-8" standalone="no"?>
<!-- Created with Inkscape (http://www.inkscape.org/) -->

<svg
   xmlns:dc="http://purl.org/dc/elements/1.1/"
   xmlns:cc="http://creativecommons.org/ns#"
   xmlns:rdf="http://www.w3.org/1999/02/22-rdf-syntax-ns#"
   xmlns:svg="http://www.w3.org/2000/svg"
   xmlns="http://www.w3.org/2000/svg"
   xmlns:sodipodi="http://sodipodi.sourceforge.net/DTD/sodipodi-0.dtd"
   xmlns:inkscape="http://www.inkscape.org/namespaces/inkscape"
   width="359.99936"
   height="122.61043"
   id="svg2"
   version="1.1"
   inkscape:version="0.91 r13725"
   sodipodi:docname="matrix-multiply-a.svg">
  <sodipodi:namedview
     id="base"
     pagecolor="#ffffff"
     bordercolor="#666666"
     borderopacity="1.0"
     inkscape:pageopacity="0.0"
     inkscape:pageshadow="2"
     inkscape:zoom="1.1867401"
     inkscape:cx="179.99941"
     inkscape:cy="61.305266"
     inkscape:document-units="px"
     inkscape:current-layer="layer1"
     showgrid="false"
     inkscape:window-width="1366"
     inkscape:window-height="745"
     inkscape:window-x="-8"
     inkscape:window-y="-8"
     inkscape:window-maximized="1"
     showborder="true" />
  <defs
     id="defs4">
    <marker
       style="overflow:visible"
       id="Arrow1MstartV"
       refX="0"
       refY="0"
       orient="auto"
       inkscape:stockid="Arrow1MstartV">
      <path
         inkscape:connector-curvature="0"
         transform="matrix(0.4,0,0,0.4,4,0)"
         style="fill:#f44800;fill-rule:evenodd;stroke:#f44800;stroke-width:1pt;marker-start:none"
         d="M 0,0 5,-5 -12.5,0 5,5 0,0 Z"
         id="path5843" />
    </marker>
    <marker
       style="overflow:visible"
       id="Arrow1MendM"
       refX="0"
       refY="0"
       orient="auto"
       inkscape:stockid="Arrow1MendM">
      <path
         inkscape:connector-curvature="0"
         transform="matrix(-0.4,0,0,-0.4,-4,0)"
         style="fill:#f44800;fill-rule:evenodd;stroke:#f44800;stroke-width:1pt;marker-start:none"
         d="M 0,0 5,-5 -12.5,0 5,5 0,0 Z"
         id="path5846" />
    </marker>
    <marker
       style="overflow:visible"
       id="Arrow1MstartH"
       refX="0"
       refY="0"
       orient="auto"
       inkscape:stockid="Arrow1MstartH">
      <path
         inkscape:connector-curvature="0"
         transform="matrix(0.4,0,0,0.4,4,0)"
         style="fill:#0197fd;fill-rule:evenodd;stroke:#0197fd;stroke-width:1pt;marker-start:none"
         d="M 0,0 5,-5 -12.5,0 5,5 0,0 Z"
         id="path5849" />
    </marker>
    <marker
       style="overflow:visible"
       id="Arrow1Mendj"
       refX="0"
       refY="0"
       orient="auto"
       inkscape:stockid="Arrow1Mendj">
      <path
         inkscape:connector-curvature="0"
         transform="matrix(-0.4,0,0,-0.4,-4,0)"
         style="fill:#0197fd;fill-rule:evenodd;stroke:#0197fd;stroke-width:1pt;marker-start:none"
         d="M 0,0 5,-5 -12.5,0 5,5 0,0 Z"
         id="path5852" />
    </marker>
  </defs>
  <metadata
     id="metadata7">
    <rdf:RDF>
      <cc:Work
         rdf:about="">
        <dc:format>image/svg+xml</dc:format>
        <dc:type
           rdf:resource="http://purl.org/dc/dcmitype/StillImage" />
        <dc:title />
      </cc:Work>
    </rdf:RDF>
  </metadata>
  <g
     transform="translate(328.74254,-2004.6706)"
     id="layer1"
     inkscape:groupmode="layer"
     inkscape:label="Layer 1">
    <circle
       r="17.661493"
       cy="2062.9827"
       cx="-36.961834"
       id="path4114-0-3-9-1"
       style="color:#000000;display:inline;overflow:visible;visibility:visible;fill:#eec73e;fill-opacity:0.31914894;fill-rule:nonzero;stroke:none;stroke-width:1.10000002;marker:none;enable-background:accumulate" />
    <rect
       transform="matrix(0,1,-1,0,0,0)"
       ry="19.349976"
       rx="10.641707"
       y="146.90567"
       x="2038.7058"
       height="27.273058"
       width="88.575203"
       id="rect5597-9-1"
       style="color:#000000;display:inline;overflow:visible;visibility:visible;fill:#eec73e;fill-opacity:0.31914894;fill-rule:nonzero;stroke:none;stroke-width:1.10000002;marker:none;enable-background:accumulate" />
    <rect
       ry="16.44875"
       rx="10.927274"
       y="2052.4521"
       x="-318.9845"
       height="23.183891"
       width="90.952087"
       id="rect5597-1"
       style="color:#000000;display:inline;overflow:visible;visibility:visible;fill:#eec73e;fill-opacity:0.31914894;fill-rule:nonzero;stroke:none;stroke-width:1.10000002;marker:none;enable-background:accumulate" />
    <path
       style="color:#000000;display:inline;overflow:visible;visibility:visible;fill:#0169c9;fill-opacity:1;fill-rule:nonzero;stroke:#636466;stroke-width:0.13077217;stroke-linecap:butt;stroke-linejoin:round;stroke-miterlimit:4;stroke-dasharray:none;stroke-dashoffset:0;stroke-opacity:1;marker:none;enable-background:accumulate"
       d="m -318.51908,2053.8962 c -2.59345,-0.3388 -5.66059,-0.1816 -8.06222,-0.324 2.78232,-1.9716 0.28024,6.9385 1.09199,8.9344 -0.48153,13.1854 -0.58688,26.9998 -0.352,39.8746 -0.51784,-0.3878 3.11388,-0.053 4.1169,-0.1615 1.76399,0.2288 4.44162,-0.8945 3.43544,2.1866 -0.97064,1.37 -4.40084,0.1278 -6.26833,0.529 -4.56983,1.0117 -4.44851,-4.4314 -4.09909,-7.4659 -0.12246,-15.2201 0.27274,-30.4785 0.64825,-45.6634 2.5759,-2.0008 6.67349,-0.384 9.83904,-0.5971 -0.11607,0.8911 -0.23669,1.8188 -0.34998,2.6873 z"
       id="path3337-6-7"
       inkscape:connector-curvature="0" />
    <path
       style="color:#000000;display:inline;overflow:visible;visibility:visible;fill:#0169c9;fill-opacity:1;fill-rule:nonzero;stroke:#636466;stroke-width:0.13077217;stroke-linecap:butt;stroke-linejoin:round;stroke-miterlimit:4;stroke-dasharray:none;stroke-dashoffset:0;stroke-opacity:1;marker:none;enable-background:accumulate"
       d="m -227.42045,2053.7131 c 2.59985,-0.2617 5.66163,-0.118 8.06756,-0.175 -2.64876,-2.1036 -0.51457,6.1081 -1.26963,8.0554 0.2865,13.2271 -0.0788,28.4844 -0.35867,40.6775 -0.80501,-0.3098 -4.09185,-0.093 -5.74704,-0.1952 -2.03602,-1.2779 -2.90879,2.5433 -1.26268,2.6471 3.08459,-0.443 7.61827,1.5896 9.49518,-1.5421 1.04759,-17.0483 0.56527,-34.2931 0.60279,-51.3714 -2.53619,-2.0675 -6.6657,-0.4918 -9.82562,-0.7767 0.0981,0.8775 0.2026,1.8697 0.29811,2.6804 z"
       id="path3339-5-4"
       inkscape:connector-curvature="0" />
    <text
       sodipodi:linespacing="100%"
       id="text3345-3-0"
       y="2098.4001"
       x="-312.59656"
       style="color:#000000;font-style:normal;font-variant:normal;font-weight:900;font-stretch:normal;font-size:19.5494957px;line-height:100%;font-family:'Comic Sans MS';-inkscape-font-specification:'Comic Sans MS';text-indent:0;text-align:start;text-decoration:none;text-decoration-line:none;letter-spacing:normal;word-spacing:normal;text-transform:none;direction:ltr;block-progression:tb;writing-mode:lr-tb;text-anchor:start;display:inline;overflow:visible;visibility:visible;fill:#fd3301;fill-opacity:1;fill-rule:nonzero;stroke:none;stroke-width:1.10000002;marker:none;enable-background:accumulate"
       xml:space="preserve"><tspan
         y="2098.4001"
         x="-312.59656"
         id="tspan3347-92-9"
         sodipodi:role="line">4</tspan></text>
    <text
       sodipodi:linespacing="100%"
       id="text3345-1-4-4"
       y="2070.9226"
       x="-313.0477"
       style="color:#000000;font-style:normal;font-variant:normal;font-weight:900;font-stretch:normal;font-size:19.5494957px;line-height:100%;font-family:'Comic Sans MS';-inkscape-font-specification:'Comic Sans MS';text-indent:0;text-align:start;text-decoration:none;text-decoration-line:none;letter-spacing:normal;word-spacing:normal;text-transform:none;direction:ltr;block-progression:tb;writing-mode:lr-tb;text-anchor:start;display:inline;overflow:visible;visibility:visible;fill:#fd3301;fill-opacity:1;fill-rule:nonzero;stroke:none;stroke-width:1.10000002;marker:none;enable-background:accumulate"
       xml:space="preserve"><tspan
         y="2070.9226"
         x="-313.0477"
         id="tspan3347-7-6-8"
         sodipodi:role="line">1</tspan></text>
    <text
       sodipodi:linespacing="100%"
       id="text3345-0-1-8"
       y="2070.9226"
       x="-281.06808"
       style="color:#000000;font-style:normal;font-variant:normal;font-weight:900;font-stretch:normal;font-size:19.5494957px;line-height:100%;font-family:'Comic Sans MS';-inkscape-font-specification:'Comic Sans MS';text-indent:0;text-align:start;text-decoration:none;text-decoration-line:none;letter-spacing:normal;word-spacing:normal;text-transform:none;direction:ltr;block-progression:tb;writing-mode:lr-tb;text-anchor:start;display:inline;overflow:visible;visibility:visible;fill:#fd3301;fill-opacity:1;fill-rule:nonzero;stroke:none;stroke-width:1.10000002;marker:none;enable-background:accumulate"
       xml:space="preserve"><tspan
         y="2070.9226"
         x="-281.06808"
         id="tspan3347-9-8-2"
         sodipodi:role="line">2</tspan></text>
    <text
       sodipodi:linespacing="100%"
       id="text3345-4-2-4"
       y="2098.4001"
       x="-248.10976"
       style="color:#000000;font-style:normal;font-variant:normal;font-weight:900;font-stretch:normal;font-size:19.5494957px;line-height:100%;font-family:'Comic Sans MS';-inkscape-font-specification:'Comic Sans MS';text-indent:0;text-align:start;text-decoration:none;text-decoration-line:none;letter-spacing:normal;word-spacing:normal;text-transform:none;direction:ltr;block-progression:tb;writing-mode:lr-tb;text-anchor:start;display:inline;overflow:visible;visibility:visible;fill:#fd3301;fill-opacity:1;fill-rule:nonzero;stroke:none;stroke-width:1.10000002;marker:none;enable-background:accumulate"
       xml:space="preserve"><tspan
         y="2098.4001"
         x="-248.10976"
         id="tspan3347-8-11-5"
         sodipodi:role="line">6</tspan></text>
    <text
       sodipodi:linespacing="100%"
       id="text3345-1-8-9-5"
       y="2070.9226"
       x="-250.2704"
       style="color:#000000;font-style:normal;font-variant:normal;font-weight:900;font-stretch:normal;font-size:19.5494957px;line-height:100%;font-family:'Comic Sans MS';-inkscape-font-specification:'Comic Sans MS';text-indent:0;text-align:start;text-decoration:none;text-decoration-line:none;letter-spacing:normal;word-spacing:normal;text-transform:none;direction:ltr;block-progression:tb;writing-mode:lr-tb;text-anchor:start;display:inline;overflow:visible;visibility:visible;fill:#fd3301;fill-opacity:1;fill-rule:nonzero;stroke:none;stroke-width:1.10000002;marker:none;enable-background:accumulate"
       xml:space="preserve"><tspan
         y="2070.9226"
         x="-250.2704"
         id="tspan3347-7-2-7-1"
         sodipodi:role="line">3</tspan></text>
    <text
       sodipodi:linespacing="100%"
       id="text3345-0-4-6-7"
       y="2098.4001"
       x="-281.36301"
       style="color:#000000;font-style:normal;font-variant:normal;font-weight:900;font-stretch:normal;font-size:19.5494957px;line-height:100%;font-family:'Comic Sans MS';-inkscape-font-specification:'Comic Sans MS';text-indent:0;text-align:start;text-decoration:none;text-decoration-line:none;letter-spacing:normal;word-spacing:normal;text-transform:none;direction:ltr;block-progression:tb;writing-mode:lr-tb;text-anchor:start;display:inline;overflow:visible;visibility:visible;fill:#fd3301;fill-opacity:1;fill-rule:nonzero;stroke:none;stroke-width:1.10000002;marker:none;enable-background:accumulate"
       xml:space="preserve"><tspan
         y="2098.4001"
         x="-281.36301"
         id="tspan3347-9-5-29-1"
         sodipodi:role="line">5</tspan></text>
    <text
       sodipodi:linespacing="100%"
       id="text3345-03-1"
       y="2061.7341"
       x="-135.0172"
       style="color:#000000;font-style:normal;font-variant:normal;font-weight:900;font-stretch:normal;font-size:19.5494957px;line-height:100%;font-family:'Comic Sans MS';-inkscape-font-specification:'Comic Sans MS';text-indent:0;text-align:start;text-decoration:none;text-decoration-line:none;letter-spacing:normal;word-spacing:normal;text-transform:none;direction:ltr;block-progression:tb;writing-mode:lr-tb;text-anchor:start;display:inline;overflow:visible;visibility:visible;fill:#fd3301;fill-opacity:1;fill-rule:nonzero;stroke:none;stroke-width:1.10000002;marker:none;enable-background:accumulate"
       xml:space="preserve"><tspan
         y="2061.7341"
         x="-135.0172"
         id="tspan3347-91-5"
         sodipodi:role="line">8</tspan></text>
    <text
       sodipodi:linespacing="100%"
       id="text3345-1-81-2"
       y="2061.7341"
       x="-166.62518"
       style="color:#000000;font-style:normal;font-variant:normal;font-weight:900;font-stretch:normal;font-size:19.5494957px;line-height:100%;font-family:'Comic Sans MS';-inkscape-font-specification:'Comic Sans MS';text-indent:0;text-align:start;text-decoration:none;text-decoration-line:none;letter-spacing:normal;word-spacing:normal;text-transform:none;direction:ltr;block-progression:tb;writing-mode:lr-tb;text-anchor:start;display:inline;overflow:visible;visibility:visible;fill:#fd3301;fill-opacity:1;fill-rule:nonzero;stroke:none;stroke-width:1.10000002;marker:none;enable-background:accumulate"
       xml:space="preserve"><tspan
         y="2061.7341"
         x="-166.62518"
         id="tspan3347-7-9-7"
         sodipodi:role="line">7</tspan></text>
    <text
       sodipodi:linespacing="100%"
       id="text3345-0-5-6"
       y="2089.7014"
       x="-166.36746"
       style="color:#000000;font-style:normal;font-variant:normal;font-weight:900;font-stretch:normal;font-size:19.5494957px;line-height:100%;font-family:'Comic Sans MS';-inkscape-font-specification:'Comic Sans MS';text-indent:0;text-align:start;text-decoration:none;text-decoration-line:none;letter-spacing:normal;word-spacing:normal;text-transform:none;direction:ltr;block-progression:tb;writing-mode:lr-tb;text-anchor:start;display:inline;overflow:visible;visibility:visible;fill:#fd3301;fill-opacity:1;fill-rule:nonzero;stroke:none;stroke-width:1.10000002;marker:none;enable-background:accumulate"
       xml:space="preserve"><tspan
         y="2089.7014"
         x="-166.36746"
         id="tspan3347-9-3-1"
         sodipodi:role="line">9</tspan></text>
    <text
       sodipodi:linespacing="100%"
       id="text3345-4-25-4"
       y="2118.1409"
       x="-141.63712"
       style="color:#000000;font-style:normal;font-variant:normal;font-weight:900;font-stretch:normal;font-size:19.5494957px;line-height:100%;font-family:'Comic Sans MS';-inkscape-font-specification:'Comic Sans MS';text-indent:0;text-align:start;text-decoration:none;text-decoration-line:none;letter-spacing:normal;word-spacing:normal;text-transform:none;direction:ltr;block-progression:tb;writing-mode:lr-tb;text-anchor:start;display:inline;overflow:visible;visibility:visible;fill:#fd3301;fill-opacity:1;fill-rule:nonzero;stroke:none;stroke-width:1.10000002;marker:none;enable-background:accumulate"
       xml:space="preserve"><tspan
         y="2118.1409"
         x="-141.63712"
         id="tspan3347-8-2-2"
         sodipodi:role="line">12</tspan></text>
    <text
       sodipodi:linespacing="100%"
       id="text3345-1-8-5-3"
       y="2118.1409"
       x="-172.17598"
       style="color:#000000;font-style:normal;font-variant:normal;font-weight:900;font-stretch:normal;font-size:19.5494957px;line-height:100%;font-family:'Comic Sans MS';-inkscape-font-specification:'Comic Sans MS';text-indent:0;text-align:start;text-decoration:none;text-decoration-line:none;letter-spacing:normal;word-spacing:normal;text-transform:none;direction:ltr;block-progression:tb;writing-mode:lr-tb;text-anchor:start;display:inline;overflow:visible;visibility:visible;fill:#fd3301;fill-opacity:1;fill-rule:nonzero;stroke:none;stroke-width:1.10000002;marker:none;enable-background:accumulate"
       xml:space="preserve"><tspan
         y="2118.1409"
         x="-172.17598"
         id="tspan3347-7-2-8-2"
         sodipodi:role="line">11</tspan></text>
    <text
       sodipodi:linespacing="100%"
       id="text3345-0-4-67-2"
       y="2089.7014"
       x="-142.00461"
       style="color:#000000;font-style:normal;font-variant:normal;font-weight:900;font-stretch:normal;font-size:19.5494957px;line-height:100%;font-family:'Comic Sans MS';-inkscape-font-specification:'Comic Sans MS';text-indent:0;text-align:start;text-decoration:none;text-decoration-line:none;letter-spacing:normal;word-spacing:normal;text-transform:none;direction:ltr;block-progression:tb;writing-mode:lr-tb;text-anchor:start;display:inline;overflow:visible;visibility:visible;fill:#fd3301;fill-opacity:1;fill-rule:nonzero;stroke:none;stroke-width:1.10000002;marker:none;enable-background:accumulate"
       xml:space="preserve"><tspan
         y="2089.7014"
         x="-142.00461"
         id="tspan3347-9-5-7-1"
         sodipodi:role="line">10</tspan></text>
    <path
       style="color:#000000;display:inline;overflow:visible;visibility:visible;fill:#0169c9;fill-opacity:1;fill-rule:nonzero;stroke:#636466;stroke-width:0.12500048;stroke-linecap:butt;stroke-linejoin:round;stroke-miterlimit:4;stroke-dasharray:none;stroke-dashoffset:0;stroke-opacity:1;marker:none;enable-background:accumulate"
       d="m -173.12853,2040.9994 c -2.83895,0.5928 -6.89749,-1.5448 -8.76861,0.9855 0.52489,13.1809 -0.006,26.4041 -0.50459,39.5977 0.4153,13.6079 -0.31908,27.2596 0.52459,40.8435 2.33368,2.2156 6.29482,0.9715 9.32371,1.388 1.84446,-3.9859 -3.21115,-1.7963 -5.32059,-2.4639 -1.50178,-0.4657 -2.58346,0.1029 -1.50919,0.2534 -0.47586,-16.5309 -0.51771,-33.1046 -0.1487,-49.6395 0.71758,-9.824 0.47366,-19.6842 0.16436,-29.5032 -2.49981,1.228 2.66825,0.5369 3.66767,0.8423 2.11289,0.097 3.21018,0.4934 2.57135,-2.3038 z"
       id="path5577-6"
       inkscape:connector-curvature="0" />
    <path
       style="color:#000000;display:inline;overflow:visible;visibility:visible;fill:#0169c9;fill-opacity:1;fill-rule:nonzero;stroke:#636466;stroke-width:0.12500048;stroke-linecap:butt;stroke-linejoin:round;stroke-miterlimit:4;stroke-dasharray:none;stroke-dashoffset:0;stroke-opacity:1;marker:none;enable-background:accumulate"
       d="m -118.08857,2040.961 c 2.83231,0.6165 6.9109,-1.5259 8.7577,1.0745 -0.65897,13.1748 -0.26072,26.4027 0.0999,39.6007 -0.56583,13.6027 0.0474,27.2619 -0.9382,40.8363 -2.35575,2.1797 -6.30432,0.9174 -9.33737,1.3251 -1.80401,-3.9742 3.22953,-1.7978 5.3455,-2.4438 1.50598,-0.4574 2.58238,0.1442 1.50619,0.28 0.63301,-16.7999 0.9048,-33.6471 0.6268,-50.459 -0.61405,-9.5568 -0.21276,-19.1387 0.166,-28.6798 2.48673,1.2327 -2.6741,0.5036 -3.67587,0.8213 -2.14543,0.093 -3.19541,0.4597 -2.55065,-2.3553 z"
       id="path5581-8"
       inkscape:connector-curvature="0" />
    <text
       sodipodi:linespacing="100%"
       id="text3237"
       y="2085.5308"
       x="-206.87744"
       style="color:#000000;font-style:normal;font-variant:normal;font-weight:bold;font-stretch:normal;font-size:24.73258972px;line-height:100%;font-family:'Comic Sans MS';-inkscape-font-specification:'Comic Sans MS';text-indent:0;text-align:start;text-decoration:none;text-decoration-line:none;letter-spacing:normal;word-spacing:normal;text-transform:none;direction:ltr;block-progression:tb;writing-mode:lr-tb;text-anchor:start;display:inline;overflow:visible;visibility:visible;fill:#0197fd;fill-opacity:1;fill-rule:nonzero;stroke:none;stroke-width:1.10000002;marker:none;enable-background:accumulate"
       xml:space="preserve"><tspan
         y="2085.5308"
         x="-206.87744"
         id="tspan3239"
         sodipodi:role="line">x</tspan></text>
    <text
       xml:space="preserve"
       style="color:#000000;font-style:normal;font-variant:normal;font-weight:normal;font-stretch:normal;font-size:32.07539368px;line-height:100%;font-family:'Comic Sans MS';-inkscape-font-specification:'Comic Sans MS';text-indent:0;text-align:start;text-decoration:none;text-decoration-line:none;letter-spacing:normal;word-spacing:normal;text-transform:none;direction:ltr;block-progression:tb;writing-mode:lr-tb;text-anchor:start;display:inline;overflow:visible;visibility:visible;fill:#0197fd;fill-opacity:1;fill-rule:nonzero;stroke:none;stroke-width:1.10000002;marker:none;enable-background:accumulate"
       x="-96.337669"
       y="2092.6675"
       id="text3716-9-1-1-3-8-2"
       sodipodi:linespacing="100%"><tspan
         sodipodi:role="line"
         id="tspan3718-0-5-4-3-9-7"
         x="-96.337669"
         y="2092.6675">=</tspan></text>
    <path
       style="color:#000000;display:inline;overflow:visible;visibility:visible;fill:#0169c9;fill-opacity:1;fill-rule:nonzero;stroke:#636466;stroke-width:0.13077217;stroke-linecap:butt;stroke-linejoin:round;stroke-miterlimit:4;stroke-dasharray:none;stroke-dashoffset:0;stroke-opacity:1;marker:none;enable-background:accumulate"
       d="m -53.145466,2053.8962 c -2.593533,-0.3388 -5.660447,-0.1816 -8.062297,-0.324 2.783304,-1.9716 0.280056,6.9385 1.092382,8.9344 -0.479803,13.1854 -0.590381,26.9997 -0.35313,39.8746 -0.517838,-0.3878 3.113914,-0.053 4.11696,-0.1615 1.763984,0.2288 4.441597,-0.8945 3.435412,2.1866 -0.970617,1.37 -4.400821,0.1277 -6.268297,0.529 -4.57028,1.0117 -4.447221,-4.4314 -4.100616,-7.4659 -0.11937,-15.2201 0.271996,-30.4786 0.650318,-45.6634 2.575914,-2.0008 6.673516,-0.384 9.839078,-0.5971 -0.115967,0.891 -0.236911,1.8189 -0.34981,2.6873 z"
       id="path3295"
       inkscape:connector-curvature="0" />
    <path
       style="color:#000000;display:inline;overflow:visible;visibility:visible;fill:#0169c9;fill-opacity:1;fill-rule:nonzero;stroke:#636466;stroke-width:0.13077217;stroke-linecap:butt;stroke-linejoin:round;stroke-miterlimit:4;stroke-dasharray:none;stroke-dashoffset:0;stroke-opacity:1;marker:none;enable-background:accumulate"
       d="m 21.521381,2054.626 c 2.599908,-0.262 5.662109,-0.1133 8.067582,-0.185 -2.744294,-2.0266 -0.419792,6.9316 -1.269982,8.911 0.220074,13.1899 0.05791,27.0277 -0.439872,39.8741 0.525134,-0.3969 -3.112527,-0.093 -4.113224,-0.2484 -1.766939,0.1776 -4.422919,-1.0105 -3.477827,2.1041 0.864171,1.3433 4.226775,0.258 6.004493,0.6601 3.4493,1.0225 5.147465,-2.4196 4.470958,-5.4052 0.418504,-15.867 0.389294,-31.7844 0.286102,-47.6265 -2.536088,-2.0671 -6.665815,-0.4928 -9.825577,-0.7757 0.09867,0.8909 0.200309,1.8301 0.297347,2.6915 z"
       id="path3297"
       inkscape:connector-curvature="0" />
    <text
       xml:space="preserve"
       style="color:#000000;font-style:normal;font-variant:normal;font-weight:900;font-stretch:normal;font-size:19.5494957px;line-height:100%;font-family:'Comic Sans MS';-inkscape-font-specification:'Comic Sans MS';text-indent:0;text-align:start;text-decoration:none;text-decoration-line:none;letter-spacing:normal;word-spacing:normal;text-transform:none;direction:ltr;block-progression:tb;writing-mode:lr-tb;text-anchor:start;display:inline;overflow:visible;visibility:visible;fill:#fd3301;fill-opacity:1;fill-rule:nonzero;stroke:none;stroke-width:1.10000002;marker:none;enable-background:accumulate"
       x="-47.674091"
       y="2070.9226"
       id="text3303"
       sodipodi:linespacing="100%"><tspan
         sodipodi:role="line"
         id="tspan3305"
         x="-47.674091"
         y="2070.9226">58</tspan></text>
    <path
       style="color:#000000;display:inline;overflow:visible;visibility:visible;fill:#eec73e;fill-opacity:1;fill-rule:nonzero;stroke:none;stroke-width:1.10000002;marker:none;enable-background:accumulate"
       d="m -287.51928,2053.1218 c 9.38116,-13.5944 25.52897,-20.7488 40.88864,-25.3479 24.21525,-6.7376 50.89211,-6.5038 73.97888,4.1353 3.68289,1.333 15.32384,6.3047 8.54703,8.3397 -19.18764,-11.0285 -41.89991,-15.7327 -63.85654,-12.453 -20.1623,2.6491 -41.46429,9.5066 -55.19379,25.2815 -1.13821,3.1611 -2.36075,0.7318 -4.36422,0.044 z"
       id="path4941-7-8-9"
       inkscape:connector-curvature="0" />
    <path
       style="color:#000000;display:inline;overflow:visible;visibility:visible;fill:#eec73e;fill-opacity:1;fill-rule:nonzero;stroke:none;stroke-width:1.10000002;marker:none;enable-background:accumulate"
       d="m -163.31191,2039.1045 c 11.82256,-11.6406 29.24758,-15.3567 45.28548,-16.4689 23.350724,-1.1653 47.452219,4.5327 66.262199,18.8359 3.51848,1.6872 14.436349,10.9896 6.848108,10.2083 -16.044643,-14.8852 -37.111938,-24.1359 -59.037537,-25.1998 -19.02143,-1.2748 -39.8603,1.331 -55.23991,13.4825 -1.7174,2.8646 -2.3523,0.23 -4.11834,-0.858 z"
       id="path4941-7-8-5"
       inkscape:connector-curvature="0" />
    <path
       inkscape:connector-curvature="0"
       d="m -60.1758,2045.1357 c 0.159658,-0.06 0.321999,-0.1118 0.485678,-0.1594 0.176623,-0.051 0.355894,-0.091 0.535685,-0.1292 0.202979,-0.042 0.407609,-0.075 0.612504,-0.1064 0.226166,-0.036 0.452961,-0.066 0.680244,-0.094 0.26939,-0.032 0.540104,-0.049 0.811023,-0.061 0.272937,-0.011 0.546074,-0.01 0.819052,0 0.273068,0.01 0.545653,0.025 0.818006,0.046 0.280468,0.022 0.560091,0.053 0.839445,0.086 0.275798,0.033 0.550784,0.073 0.825574,0.1132 0.269422,0.041 0.538086,0.086 0.8066,0.1316 0.269559,0.046 0.538451,0.095 0.806924,0.1464 0.281029,0.053 0.560776,0.1131 0.839586,0.177 0.281098,0.065 0.560169,0.1384 0.838565,0.2141 0.259316,0.071 0.517688,0.146 0.775963,0.2209 0.239749,0.069 0.479001,0.1398 0.718006,0.2114 0.218141,0.065 0.436231,0.131 0.654332,0.1966 0.200244,0.06 0.400488,0.1204 0.600732,0.1806 0.184355,0.055 0.368706,0.1109 0.553062,0.1663 0.169731,0.051 0.339462,0.1021 0.509194,0.1531 0.15627,0.047 0.312541,0.094 0.468812,0.141 0.143874,0.043 0.287753,0.086 0.431631,0.1298 0.130122,0.039 0.26043,0.078 0.390844,0.1166 0.132741,0.038 0.264679,0.079 0.396786,0.119 0.137197,0.042 0.273946,0.085 0.410211,0.1301 0.129893,0.043 0.259193,0.088 0.388434,0.1326 0.127186,0.043 0.254008,0.087 0.380487,0.1323 0.128204,0.045 0.255665,0.092 0.383034,0.1397 0.113895,0.043 0.227776,0.085 0.341658,0.1274 0.104675,0.039 0.209354,0.078 0.314034,0.1172 0.08857,0.033 0.177148,0.066 0.265962,0.099 0.07505,0.026 0.150041,0.052 0.225202,0.078 0.05965,0.02 0.119044,0.04 0.178582,0.06 0,0 -1.143735,3.4674 -1.143735,3.4674 l 0,0 c -0.06332,-0.021 -0.126383,-0.043 -0.18981,-0.063 -0.100366,-0.034 -0.200207,-0.069 -0.300217,-0.104 -0.104424,-0.037 -0.208255,-0.077 -0.312264,-0.1156 -0.104661,-0.039 -0.209318,-0.078 -0.313979,-0.1172 -0.113188,-0.042 -0.226371,-0.084 -0.339572,-0.1267 -0.112348,-0.042 -0.224732,-0.084 -0.337865,-0.1232 -0.116054,-0.042 -0.232747,-0.082 -0.349454,-0.1214 -0.112466,-0.039 -0.224937,-0.078 -0.337979,-0.1155 -0.108422,-0.035 -0.216754,-0.07 -0.325861,-0.1033 -0.121736,-0.037 -0.243286,-0.075 -0.365652,-0.1097 -0.136927,-0.04 -0.273754,-0.081 -0.41038,-0.1225 -0.143869,-0.043 -0.287739,-0.086 -0.431608,-0.1299 -0.156262,-0.047 -0.312528,-0.094 -0.46879,-0.141 -0.169726,-0.051 -0.339448,-0.1021 -0.509175,-0.1532 -0.184342,-0.055 -0.368688,-0.1109 -0.553035,-0.1663 -0.200207,-0.06 -0.400419,-0.1205 -0.600632,-0.1808 -0.216721,-0.065 -0.433434,-0.1304 -0.650201,-0.1954 -0.229251,-0.069 -0.458743,-0.1366 -0.688715,-0.2028 -0.238521,-0.069 -0.477106,-0.1383 -0.716568,-0.2043 -0.231597,-0.063 -0.463682,-0.1244 -0.697511,-0.1787 -0.235915,-0.055 -0.472838,-0.1045 -0.710679,-0.1498 -0.244496,-0.047 -0.489435,-0.092 -0.734939,-0.1333 -0.240972,-0.041 -0.482054,-0.082 -0.723816,-0.1184 -0.239383,-0.036 -0.478904,-0.07 -0.719146,-0.099 -0.228265,-0.027 -0.456694,-0.053 -0.685844,-0.071 -0.211263,-0.016 -0.422658,-0.031 -0.634473,-0.037 -0.190006,0 -0.380094,-0.01 -0.57011,0 -0.178928,0.01 -0.357756,0.018 -0.535717,0.039 -0.189778,0.023 -0.379068,0.049 -0.567873,0.079 -0.137922,0.021 -0.27573,0.042 -0.412434,0.071 -0.09042,0.019 -0.18069,0.038 -0.26965,0.063 -0.07541,0.022 -0.150291,0.045 -0.223888,0.073 0,0 -1.27428,-3.4209 -1.27428,-3.4209 z"
       id="path4945-0-9-4"
       style="color:#000000;display:inline;overflow:visible;visibility:visible;fill:#eec73e;fill-opacity:1;fill-rule:nonzero;stroke:none;stroke-width:1.10000002;marker:none;enable-background:accumulate" />
    <path
       inkscape:connector-curvature="0"
       d="m -47.554463,2037.3392 c 0.0058,0.077 0.0168,0.1526 0.0283,0.2285 0.01652,0.091 0.03505,0.1815 0.05483,0.2718 0.02839,0.1302 0.059,0.2599 0.0913,0.3892 0.03168,0.1321 0.06959,0.2625 0.109171,0.3923 0.04469,0.1447 0.0941,0.2879 0.145435,0.4303 0.05655,0.16 0.119203,0.3178 0.182123,0.4753 0.06865,0.168 0.139666,0.3351 0.210163,0.5023 0.0772,0.1823 0.154705,0.3645 0.231994,0.5467 0.07538,0.1761 0.154518,0.3505 0.234774,0.5244 0.08741,0.1897 0.178335,0.3777 0.27059,0.5651 0.0954,0.1931 0.194899,0.3842 0.29574,0.5745 0.102311,0.1936 0.206721,0.3861 0.312579,0.5777 0.102014,0.1835 0.20531,0.3663 0.309593,0.5485 0.09885,0.1721 0.197889,0.344 0.298898,0.5148 0.09473,0.1613 0.19191,0.3212 0.290072,0.4804 0.09173,0.1498 0.187993,0.2968 0.285109,0.4431 0.09974,0.1479 0.200633,0.295 0.30266,0.4412 0.102046,0.1456 0.204704,0.2907 0.307421,0.4357 0.09567,0.1348 0.192758,0.2687 0.290034,0.4024 0.09531,0.1318 0.190942,0.2634 0.287593,0.3942 0.09523,0.1293 0.191978,0.2575 0.287378,0.3866 0.09053,0.121 0.180494,0.2424 0.270951,0.3634 0.09142,0.1243 0.183297,0.2483 0.274781,0.3726 0.08469,0.1121 0.168631,0.2247 0.252479,0.3375 0.07984,0.1074 0.159644,0.2148 0.239452,0.3222 0.07333,0.099 0.146649,0.1974 0.219972,0.2961 0.06751,0.091 0.135014,0.1818 0.202517,0.2727 0.06215,0.084 0.124302,0.1673 0.186455,0.251 0.04537,0.061 0.02113,0.028 0.07257,0.099 0,0 -2.954664,2.1446 -2.954664,2.1446 l 0,0 c -0.07262,-0.099 0.05049,0.067 -0.04883,-0.067 -0.06214,-0.084 -0.124279,-0.1673 -0.186418,-0.251 -0.06749,-0.091 -0.134983,-0.1817 -0.202476,-0.2726 -0.0733,-0.099 -0.146604,-0.1974 -0.219908,-0.2961 -0.07941,-0.1069 -0.158813,-0.2139 -0.238256,-0.3208 -0.08736,-0.1175 -0.174994,-0.2348 -0.263009,-0.3518 -0.08622,-0.1171 -0.172858,-0.234 -0.258919,-0.3512 -0.09496,-0.1271 -0.189454,-0.2545 -0.284421,-0.3816 -0.09525,-0.1293 -0.19232,-0.2573 -0.287401,-0.3867 -0.101307,-0.1374 -0.201969,-0.2754 -0.301943,-0.4139 -0.106428,-0.1462 -0.212618,-0.2928 -0.31728,-0.4403 -0.107998,-0.1526 -0.215936,-0.3052 -0.323176,-0.4582 -0.117894,-0.1694 -0.234824,-0.3394 -0.349851,-0.5107 -0.119478,-0.1803 -0.237695,-0.3614 -0.350687,-0.5457 -0.110006,-0.1787 -0.219022,-0.3579 -0.325253,-0.5388 -0.109422,-0.1854 -0.217169,-0.3718 -0.324277,-0.5585 -0.113471,-0.1984 -0.225841,-0.3974 -0.336829,-0.5971 -0.116154,-0.2105 -0.230784,-0.4218 -0.343105,-0.6343 -0.117432,-0.2221 -0.233513,-0.4448 -0.344597,-0.6702 -0.105716,-0.2148 -0.209902,-0.4303 -0.310127,-0.6478 -0.09611,-0.2084 -0.190778,-0.4174 -0.280892,-0.6284 -0.07834,-0.1847 -0.156956,-0.3694 -0.235199,-0.5541 -0.07946,-0.1886 -0.159516,-0.3769 -0.236457,-0.5664 -0.07861,-0.1969 -0.156276,-0.3942 -0.227156,-0.594 -0.07186,-0.2002 -0.141063,-0.4014 -0.203348,-0.6048 -0.05737,-0.1895 -0.112284,-0.3797 -0.158886,-0.5722 -0.04081,-0.1647 -0.0802,-0.3299 -0.116173,-0.4957 -0.03597,-0.1666 -0.07046,-0.3335 -0.0972,-0.5018 -0.0241,-0.1603 -0.04491,-0.3211 -0.05725,-0.4828 0,0 3.639065,-0.2899 3.639065,-0.2899 z"
       id="path4947-7-8-3"
       style="color:#000000;display:inline;overflow:visible;visibility:visible;fill:#eec73e;fill-opacity:1;fill-rule:nonzero;stroke:none;stroke-width:1.10000002;marker:none;enable-background:accumulate" />
    <text
       xml:space="preserve"
       style="color:#000000;font-style:normal;font-variant:normal;font-weight:900;font-stretch:normal;font-size:19.5494957px;line-height:100%;font-family:'Comic Sans MS';-inkscape-font-specification:'Comic Sans MS';text-indent:0;text-align:start;text-decoration:none;text-decoration-line:none;letter-spacing:normal;word-spacing:normal;text-transform:none;direction:ltr;block-progression:tb;writing-mode:lr-tb;text-anchor:start;display:inline;overflow:visible;visibility:visible;fill:#eec73e;fill-opacity:1;fill-rule:nonzero;stroke:none;stroke-width:1.10000002;marker:none;enable-background:accumulate"
       x="-191.8127"
       y="2023.8864"
       id="text4024-8-0-2"
       sodipodi:linespacing="100%"><tspan
         sodipodi:role="line"
         id="tspan4026-3-6-3"
         x="-191.8127"
         y="2023.8864">“点积”</tspan></text>
  </g>
</svg>
