<?xml version="1.0" encoding="UTF-8" standalone="no"?>
<!-- Copyright 2017 mathsisfun.com -->
<svg xmlns="http://www.w3.org/2000/svg" width="484.8" height="172.6" version="1.1">
<defs/>
<g transform="translate(-1196.6554,-2339.5935)">
<path style="color:black; overflow:visible; fill:#0169c9; stroke:#636466; stroke-width:0.14; stroke-linejoin:round;" d="m 1543.4,2373.4 c -2.8,-0.4 -6.2,-0.2 -8.8,-0.4 2.8,-2.5 0.5,5.2 1.2,7 -0.4,15.3 -0.8,31.3 -0.4,46.2 -0.7,-0.4 3.1,-0 4.1,-0.2 1.8,0.4 5.1,-1.2 4.1,2.1 -0.1,1.9 -3.8,0.4 -5.3,0.8 -3,0.6 -6.8,-0.6 -6,-4.4 -0,-17.8 0.2,-35.7 0.8,-53.5 2.4,-2.1 6.4,-0.3 9.5,-0.7 2.2,-0.4 0.7,1.9 0.8,3.1 z"/>
<path style="color:black; overflow:visible; fill:#0169c9; stroke:#636466; stroke-width:0.14; stroke-linejoin:round;" d="m 1648.7,2373.2 c 2.8,-0.3 6.2,-0 8.8,-0.2 -3,-2.3 -0.5,7.4 -1.4,9.5 0.3,14.2 -0.1,30.6 -0.4,43.6 -0.4,-0.3 -3.6,-0.1 -4.9,-0.2 -2.4,-0.3 -4.4,-0.4 -3.5,2.9 3.5,-0.2 7.6,1.1 10.6,-0.7 2,-6.3 0.3,-13.3 1.1,-19.9 0.3,-12.3 0,-24.7 0,-37.1 -2.5,-2.2 -6.7,-0.5 -9.9,-0.9 -1.7,-0.4 -0.2,2.2 -0.5,3 z"/>
<text x="1549.9" y="2422" style="font-family:'Comic Sans MS'; font-weight:900; font-size:21.3px; color:black; overflow:visible; fill:#fd3301; stroke-width:1.1;">1</text>
<text x="1549.4" y="2392" style="font-family:'Comic Sans MS'; font-weight:900; font-size:21.3px; color:black; overflow:visible; fill:#fd3301; stroke-width:1.1;">6</text>
<text x="1584.3" y="2392" style="font-family:'Comic Sans MS'; font-weight:900; font-size:21.3px; color:black; overflow:visible; fill:#fd3301; stroke-width:1.1;">4</text>
<text x="1625.2" y="2422" style="font-family:'Comic Sans MS'; font-weight:900; font-size:21.3px; color:black; overflow:visible; fill:#fd3301; stroke-width:1.1;">8</text>
<text x="1616.8" y="2392" style="font-family:'Comic Sans MS'; font-weight:900; font-size:21.3px; color:black; overflow:visible; fill:#fd3301; stroke-width:1.1;">24</text>
<text x="1576" y="2422" style="font-family:'Comic Sans MS'; font-weight:900; font-size:21.3px; color:black; overflow:visible; fill:#fd3301; stroke-width:1.1;">-9</text>
<text x="1216.7" y="2392.4" style="font-family:'Comic Sans MS'; font-weight:900; font-size:21.3px; color:black; overflow:visible; fill:#fd3301; stroke-width:1.1;">24</text>
<text x="1422.4" y="2443.6" style="font-family:'Comic Sans MS'; font-weight:900; font-size:21.3px; color:black; overflow:visible; fill:#fd3301; stroke-width:1.1;">2</text>
<text x="1422.3" y="2504.4" style="font-family:'Comic Sans MS'; font-weight:900; font-size:21.3px; color:black; overflow:visible; fill:#fd3301; stroke-width:1.1;">7</text>
<text x="1409.3" y="2474.7" style="font-family:'Comic Sans MS'; font-weight:900; font-size:21.3px; color:black; overflow:visible; fill:#fd3301; stroke-width:1.1;">-8</text>
<path style="color:black; overflow:visible; fill:#0169c9; stroke:#636466; stroke-width:0.14; stroke-linejoin:round;" d="m 1447.6,2421.8 c 3.1,0.6 7.1,-1.4 9.5,0.8 0.1,10.3 -0.9,20.7 -0,31.1 0.5,18.1 -0,36.2 -0.6,54.2 0.5,2.7 -1.5,4.5 -4.1,4 -2.1,0.3 -4.2,-0 -6.3,0.1 -1.9,-3.8 2.3,-2.3 4.4,-2.5 1.2,0.1 4.9,-0.9 3,0.4 0.8,-16.9 0.8,-33.8 0.9,-50.8 -0.7,-11.9 -0.6,-23.8 0,-35.7 2.7,1.3 -1.9,0.6 -3,0.9 -2.4,-0.3 -4.8,1.4 -3.8,-2.5 z"/>
<path style="color:black; overflow:visible; fill:#0169c9; stroke:#636466; stroke-width:0.14; stroke-linejoin:round;" d="m 1410.8,2421.8 c -3.1,0.6 -7.1,-1.4 -9.5,0.8 -0.2,10.3 0.7,20.7 -0.2,31.1 -0.7,17.8 -0.2,35.5 -0,53.3 -0.3,2.4 0.4,5.5 3.5,4.9 2.3,0.3 4.6,0 6.9,0.2 2,-3.8 -2.3,-2.4 -4.4,-2.6 -1.2,0.1 -4.9,-0.9 -3,0.4 -0.6,-16.3 -0.3,-32.7 -0.4,-49 0.7,-12.5 1,-25 0.4,-37.5 -2.7,1.2 1.9,0.6 2.9,0.9 2.4,-0.3 4.8,1.4 3.9,-2.5 z"/>
<path style="color:black; overflow:visible; fill:#0169c9; stroke:#636466; stroke-width:0.14; stroke-linejoin:round;" d="m 1340.5,2370.7 c -2.8,-0.2 -6.2,-0.1 -8.8,-0.3 2.7,-1.7 0.5,4.2 1.2,5.6 -0.4,8.3 -0.8,17.3 -0.3,25.2 -0.7,-0.4 2.9,0 3.7,-0.2 1.6,0.4 5.5,-1 4.2,1.7 -3.6,-0.3 -7.9,1.1 -10.9,-1.1 -0.8,-10.7 0.1,-21.7 0.5,-32.4 3.3,-1.3 7.2,-0.1 10.7,-0.3 -0.1,0.5 -0.3,1.2 -0.4,1.7 z"/>
<path style="color:black; overflow:visible; fill:#0169c9; stroke:#636466; stroke-width:0.14; stroke-linejoin:round;" d="m 1440.8,2370.6 c 2.8,-0.2 6.2,-0 8.8,-0.2 -2.6,-1.7 -0.7,4.2 -1.4,5.6 0.2,8.3 0,17.1 -0.5,25.1 0.5,-0.2 -3.1,-0 -4.1,-0.2 -1.6,0.1 -5.5,-0.7 -3.8,1.7 3.5,-0.4 7.8,1.2 10.7,-1 1.2,-10.7 0.6,-21.7 0.7,-32.4 -3.2,-1.3 -7.2,-0.2 -10.7,-0.5 0.1,0.5 0.2,1.2 0.3,1.7 z"/>
<text x="1346.8" y="2393.6" style="font-family:'Comic Sans MS'; font-weight:900; font-size:21.3px; color:black; overflow:visible; fill:#fd3301; stroke-width:1.1;">2</text>
<text x="1422.1" y="2393.6" style="font-family:'Comic Sans MS'; font-weight:900; font-size:21.3px; color:black; overflow:visible; fill:#fd3301; stroke-width:1.1;">7</text>
<text x="1372.9" y="2393.6" style="font-family:'Comic Sans MS'; font-weight:900; font-size:21.3px; color:black; overflow:visible; fill:#fd3301; stroke-width:1.1;">-8</text>
<text x="1195" y="2359.7" style="font-family:'Comic Sans MS'; font-size:25px; color:black; overflow:visible; fill:#0084c8; stroke-width:1px;">Scalar</text>
<text x="1355.1" y="2358.5" style="font-family:'Comic Sans MS'; font-size:25px; color:black; overflow:visible; fill:#0084c8; stroke-width:1px;">Vector</text>
<text x="1556" y="2358.3" style="font-family:'Comic Sans MS'; font-size:25px; color:black; overflow:visible; fill:#0084c8; stroke-width:1px;">Matrix</text>
<text x="1328.2" y="2457.4" style="font-family:'Comic Sans MS'; font-size:20px; color:black; overflow:visible; fill:black; stroke-width:1px;">or</text>
<text x="1328.9" y="2421.8" style="font-family:'Comic Sans MS'; font-size:20px; color:black; overflow:visible; fill:black; stroke-width:1px;">row</text>
<text x="1328.2" y="2473.3" style="font-family:'Comic Sans MS'; font-size:20px; color:black; overflow:visible; fill:black; stroke-width:1px;">column</text>
<text x="1515.1" y="2453.3" style="font-family:'Comic Sans MS'; font-size:20px; color:black; overflow:visible; fill:black; stroke-width:1px;">row(s) × column(s)</text>
</g>
</svg>
